HIERARCHY
ROOT Hips
{
	OFFSET 0.000000 0.000000 0.000000
	CHANNELS 6 Xposition Yposition Zposition Xrotation Yrotation Zrotation
	JOINT LeftUpLeg_virtual
	{
		OFFSET 0.000000 0.000000 0.000000
		CHANNELS 3 Xrotation Yrotation Zrotation
		JOINT LeftUpLeg
		{
			OFFSET 13.026900 -6.336304 -1.092800
			CHANNELS 3 Xrotation Yrotation Zrotation
			JOINT LeftLeg
			{
				OFFSET 0.524474 -46.096886 9.782700
				CHANNELS 3 Xrotation Yrotation Zrotation
				JOINT LeftFoot
				{
					OFFSET -0.524474 -53.427422 -12.948200
					CHANNELS 3 Xrotation Yrotation Zrotation
					JOINT LeftToeBase
					{
						OFFSET 0.192200 -14.009700 16.364100
						CHANNELS 3 Xrotation Yrotation Zrotation
						JOINT LeftToe_End
						{
							OFFSET -1.784700 -0.561700 9.474800
							CHANNELS 3 Xrotation Yrotation Zrotation
							End Site
							{
								OFFSET 0 0 0
							}
						}
					}
				}
			}
		}
	}
	JOINT RightUpLeg_virtual
	{
		OFFSET 0.000000 0.000000 0.000000
		CHANNELS 3 Xrotation Yrotation Zrotation
		JOINT RightUpLeg
		{
			OFFSET -12.883000 -6.336304 -1.092800
			CHANNELS 3 Xrotation Yrotation Zrotation
			JOINT RightLeg
			{
				OFFSET -0.524587 -46.096825 9.782800
				CHANNELS 3 Xrotation Yrotation Zrotation
				JOINT RightFoot
				{
					OFFSET 0.524587 -53.427383 -12.948300
					CHANNELS 3 Xrotation Yrotation Zrotation
					JOINT RightToeBase
					{
						OFFSET -0.192200 -14.009700 16.364100
						CHANNELS 3 Xrotation Yrotation Zrotation
						JOINT RightToe_End
						{
							OFFSET 1.784700 -0.561700 9.474800
							CHANNELS 3 Xrotation Yrotation Zrotation
							End Site
							{
								OFFSET 0 0 0
							}
						}
					}
				}
			}
		}
	}
	JOINT Spine_virtual
	{
		OFFSET 0.000000 0.000000 0.000000
		CHANNELS 3 Xrotation Yrotation Zrotation
		JOINT Spine
		{
			OFFSET 0.072000 7.257294 -0.789700
			CHANNELS 3 Xrotation Yrotation Zrotation
			JOINT Spine1
			{
				OFFSET 0.000000 12.508769 -0.658067
				CHANNELS 3 Xrotation Yrotation Zrotation
				JOINT Spine1_split
				{
					OFFSET 0.000000 12.508769 -0.658067
					CHANNELS 3 Xrotation Yrotation Zrotation
					JOINT Spine2
					{
						OFFSET 0.000000 12.508769 -0.658067
						CHANNELS 3 Xrotation Yrotation Zrotation
						JOINT Neck_virtual
						{
							OFFSET 0.000000 0.000000 0.000000
							CHANNELS 3 Xrotation Yrotation Zrotation
							JOINT Neck
							{
								OFFSET 0.000000 14.033295 7.520400
								CHANNELS 3 Xrotation Yrotation Zrotation
								JOINT Head
								{
									OFFSET 0.000000 8.198502 5.703100
									CHANNELS 3 Xrotation Yrotation Zrotation
									JOINT HeadTop_End
									{
										OFFSET 0.000000 17.760803 13.332701
										CHANNELS 3 Xrotation Yrotation Zrotation
										End Site
										{
											OFFSET 0 0 0
										}
									}
								}
							}
						}
						JOINT LeftShoulder_virtual
						{
							OFFSET 0.000000 0.000000 0.000000
							CHANNELS 3 Xrotation Yrotation Zrotation
							JOINT LeftShoulder
							{
								OFFSET 6.292450 5.785301 -0.669000
								CHANNELS 3 Xrotation Yrotation Zrotation
								JOINT LeftShoulder_split
								{
									OFFSET 6.292450 5.785301 -0.669000
									CHANNELS 3 Xrotation Yrotation Zrotation
									JOINT LeftArm
									{
										OFFSET 13.907140 -6.093903 1.965100
										CHANNELS 3 Xrotation Yrotation Zrotation
										JOINT LeftForeArm
										{
											OFFSET 34.140198 0.000000 0.000000
											CHANNELS 3 Xrotation Yrotation Zrotation
											JOINT LeftHand
											{
												OFFSET 40.960209 0.000000 0.000000
												CHANNELS 3 Xrotation Yrotation Zrotation
												End Site
												{
													OFFSET 0 0 0
												}
											}
										}
									}
								}
							}
						}
						JOINT RightShoulder_virtual
						{
							OFFSET 0.000000 0.000000 0.000000
							CHANNELS 3 Xrotation Yrotation Zrotation
							JOINT RightShoulder
							{
								OFFSET -6.292450 5.785301 -0.669000
								CHANNELS 3 Xrotation Yrotation Zrotation
								JOINT RightShoulder_split
								{
									OFFSET -6.292450 5.785301 -0.669000
									CHANNELS 3 Xrotation Yrotation Zrotation
									JOINT RightArm
									{
										OFFSET -13.907140 -6.093903 1.965100
										CHANNELS 3 Xrotation Yrotation Zrotation
										JOINT RightForeArm
										{
											OFFSET -34.140198 0.000000 0.000000
											CHANNELS 3 Xrotation Yrotation Zrotation
											JOINT RightHand
											{
												OFFSET -40.960209 0.000000 0.000000
												CHANNELS 3 Xrotation Yrotation Zrotation
												End Site
												{
													OFFSET 0 0 0
												}
											}
										}
									}
								}
							}
						}
					}
				}
			}
		}
	}
}
MOTION
Frames: 6
Frame Time: 0.03333333
15.845559 110.199585 -0.995045 0.000000 0.000000 0.000000 4.427015 -44.705446 3.300090 -24.467671 14.338539 8.560069 35.222930 22.912763 3.350751 -8.053912 20.204804 -12.434448 -3.075494 -2.348406 -2.459409 0.000000 0.000000 0.000000 4.427015 -44.705446 3.300090 -29.016973 -37.576320 -24.608017 35.620734 -11.939867 -2.395280 -12.250930 -5.971694 11.596451 -3.462163 2.343135 3.682196 0.000000 0.000000 0.000000 4.427015 -44.705446 3.300090 10.075396 -5.665279 2.151282 3.163504 -1.512337 -0.697452 0.000000 0.000000 0.000000 0.000000 0.000000 0.000000 -8.797956 -4.507174 -1.737361 -8.619754 -5.680359 -4.223876 10.236758 -21.724166 6.571342 0.000000 0.000000 0.000000 -8.797956 -4.507174 -1.737361 -1.030448 -3.562890 -2.856980 0.000000 0.000000 0.000000 12.943513 6.801906 -62.448870 -0.021942 -41.919839 -0.010943 0.000000 0.000000 0.000000 -8.797956 -4.507174 -1.737361 -0.692928 -0.246635 0.850134 0.000000 0.000000 0.000000 3.276088 11.725651 70.773402 0.642560 47.750802 -0.275621 0.000000 0.000000 0.000000 
15.353677 110.370277 -1.487659 0.000000 0.000000 0.000000 3.942411 -48.257650 3.469706 -23.003551 14.973810 8.976397 34.869745 24.473802 3.239836 -7.738052 21.492295 -13.571021 -2.615609 -1.916447 -2.884488 0.000000 0.000000 0.000000 3.942411 -48.257650 3.469706 -27.814286 -37.559313 -24.617308 33.638948 -12.142114 -2.331837 -10.747117 -6.717670 12.862459 -5.415911 2.348695 2.459464 0.000000 0.000000 0.000000 3.942411 -48.257650 3.469706 9.929201 -5.758314 2.141361 2.967047 -1.211544 -0.652809 0.000000 0.000000 0.000000 0.000000 0.000000 0.000000 -9.020277 -4.366687 -1.601919 -8.544198 -4.716537 -4.541435 10.608237 -19.712419 5.755015 0.000000 0.000000 0.000000 -9.020277 -4.366687 -1.601919 -0.878238 -4.226527 -2.233009 0.000000 0.000000 0.000000 13.531508 6.780613 -62.153028 -0.020251 -42.480628 -0.009962 0.000000 0.000000 0.000000 -9.020277 -4.366687 -1.601919 -0.846759 0.820773 0.916899 0.000000 0.000000 0.000000 2.989866 9.871421 70.799542 0.512293 47.191068 -0.227971 0.000000 0.000000 0.000000 
14.802993 110.250389 -2.264278 0.000000 0.000000 0.000000 3.611806 -51.207608 3.388899 -23.513121 15.212911 10.504102 36.804594 26.435390 3.175734 -6.270129 20.854115 -14.895596 -1.518846 -0.885961 -3.896995 0.000000 0.000000 0.000000 3.611806 -51.207608 3.388899 -28.085096 -36.993961 -24.044185 34.255523 -10.972946 -2.280280 -11.499692 -5.648496 11.720552 -5.415904 2.348522 2.459470 0.000000 0.000000 0.000000 3.611806 -51.207608 3.388899 9.804657 -5.588991 2.106532 2.839596 -0.944629 -0.432630 0.000000 0.000000 0.000000 0.000000 0.000000 0.000000 -9.159908 -4.281933 -1.286580 -8.508167 -4.235823 -4.578832 10.792601 -17.958411 4.764732 0.000000 0.000000 0.000000 -9.159908 -4.281933 -1.286580 -0.726153 -4.749503 -1.633529 0.000000 0.000000 0.000000 13.608969 6.402161 -62.096658 -0.018521 -42.554049 -0.009066 0.000000 0.000000 0.000000 -9.159908 -4.281933 -1.286580 -0.995144 1.645284 1.031887 0.000000 0.000000 0.000000 2.815507 7.867700 70.540083 0.304919 46.539495 -0.149976 0.000000 0.000000 0.000000 
14.234527 110.123093 -3.243168 0.000000 0.000000 0.000000 3.211293 -53.572633 2.751374 -24.903095 15.051872 12.943247 39.591834 26.912948 2.933134 -3.607933 19.249090 -16.276957 -0.285125 0.351454 -4.930445 0.000000 0.000000 0.000000 3.211293 -53.572633 2.751374 -27.346385 -36.165312 -22.253818 34.657206 -10.520764 -2.270020 -12.144769 -5.182240 10.792408 -5.415932 2.348669 2.459443 0.000000 0.000000 0.000000 3.211293 -53.572633 2.751374 9.713242 -5.081747 2.183308 2.769439 -0.747862 -0.110741 0.000000 0.000000 0.000000 0.000000 0.000000 0.000000 -9.231854 -4.270539 -0.872010 -8.406887 -4.199630 -4.326487 10.892024 -16.490631 3.714331 0.000000 0.000000 0.000000 -9.231854 -4.270539 -0.872010 -0.597249 -5.228938 -1.041852 0.000000 0.000000 0.000000 13.072934 5.641167 -62.093386 -0.016756 -41.984001 -0.008190 0.000000 0.000000 0.000000 -9.231854 -4.270539 -0.872010 -1.129704 2.212045 1.229379 0.000000 0.000000 0.000000 2.675075 5.839536 70.097221 0.079159 45.487499 -0.058586 0.000000 0.000000 0.000000 
13.617997 110.054169 -4.211205 0.000000 0.000000 0.000000 2.525635 -55.670263 1.737177 -26.198717 14.855178 15.316090 41.947323 24.862537 2.408420 -1.328559 17.462087 -16.107171 -1.177638 1.322510 -4.844782 0.000000 0.000000 0.000000 2.525635 -55.670263 1.737177 -25.882928 -34.878699 -19.887798 34.820516 -10.547845 -2.286153 -12.656693 -5.148540 10.097294 -5.415911 2.348565 2.459485 0.000000 0.000000 0.000000 2.525635 -55.670263 1.737177 9.641586 -4.138637 2.219854 2.758852 -0.674160 0.191250 0.000000 0.000000 0.000000 0.000000 0.000000 0.000000 -9.240040 -4.354644 -0.487646 -8.856092 -4.491406 -3.793483 10.990138 -15.209525 2.595062 0.000000 0.000000 0.000000 -9.240040 -4.354644 -0.487646 -0.506792 -5.780022 -0.538030 0.000000 0.000000 0.000000 12.542970 4.469190 -61.983325 -0.015003 -41.273819 -0.007427 0.000000 0.000000 0.000000 -9.240040 -4.354644 -0.487646 -1.244803 2.569905 1.471829 0.000000 0.000000 0.000000 2.575585 3.886159 69.584697 -0.068316 43.979482 0.010161 0.000000 0.000000 0.000000 
12.902261 110.133209 -5.040951 0.000000 0.000000 0.000000 1.612506 -57.716014 0.618048 -27.666064 14.759480 17.251728 43.667100 21.425509 1.776731 -0.043797 15.185078 -14.717589 -2.228914 1.338261 -5.751721 0.000000 0.000000 0.000000 1.612506 -57.716014 0.618048 -24.026536 -33.149930 -17.429147 34.642825 -10.823744 -2.303871 -12.999550 -5.340909 9.590385 -5.415902 2.348628 2.459454 0.000000 0.000000 0.000000 1.612506 -57.716014 0.618048 9.585780 -2.869832 2.192608 2.797756 -0.696173 0.446943 0.000000 0.000000 0.000000 0.000000 0.000000 0.000000 -9.198965 -4.505708 -0.161227 -8.818834 -4.728195 -3.520149 11.311650 -14.058665 1.836464 0.000000 0.000000 0.000000 -9.198965 -4.505708 -0.161227 -0.443686 -6.380277 -0.208224 0.000000 0.000000 0.000000 12.634078 2.854911 -61.717111 -0.013653 -40.959391 -0.006840 0.000000 0.000000 0.000000 -9.198965 -4.505708 -0.161227 -1.344717 2.819726 1.678170 0.000000 0.000000 0.000000 2.458478 2.033187 69.023522 -0.103935 41.970225 0.030982 0.000000 0.000000 0.000000 
